<svg width="728" height="445" viewBox="0 0 728 445" fill="none" xmlns="http://www.w3.org/2000/svg">
<g clip-path="url(#clip0_218_388)">
<path d="M427.398 354.663H302.481V443.438H427.398V354.663Z" fill="#39465E"/>
<path d="M608.924 364.475H119.076C108.6 364.475 100.077 355.996 100.077 345.572V286.914H627.923V345.572C627.923 355.996 619.401 364.475 608.924 364.475Z" fill="#5E6B83"/>
<path d="M434.912 432.224H294.967V443.437H434.912V432.224Z" fill="#39465E"/>
<path d="M627.454 311.678H100.077V13.4721C100.077 6.31943 105.926 0.5 113.115 0.5H614.416C621.605 0.5 627.454 6.31943 627.454 13.4721V311.678Z" fill="#3F3D56"/>
<path d="M364.939 11.2462C367.014 11.2462 368.696 9.57275 368.696 7.50838C368.696 5.44401 367.014 3.77051 364.939 3.77051C362.864 3.77051 361.182 5.44401 361.182 7.50838C361.182 9.57275 362.864 11.2462 364.939 11.2462Z" fill="#E5EAF4"/>
<path d="M614.774 14.0498H112.287V295.325H614.774V14.0498Z" fill="white"/>
<path d="M555.965 226.558C579.626 226.558 598.807 207.474 598.807 183.933C598.807 160.391 579.626 141.308 555.965 141.308C532.304 141.308 513.123 160.391 513.123 183.933C513.123 207.474 532.304 226.558 555.965 226.558Z" fill="#C6CDDB"/>
<path d="M727.5 443.715C727.5 444.149 727.147 444.5 726.711 444.5H0.5V442.93H726.711C727.147 442.93 727.5 443.282 727.5 443.715Z" fill="#C6CDDB"/>
<path d="M123.494 177.734L118.081 196.584L139.734 197.931L138.381 175.714L123.494 177.734Z" fill="#FFB6B6"/>
<path d="M213.451 254.685C218.589 256.43 223.659 255.207 224.775 251.953C225.891 248.7 222.63 244.648 217.49 242.903C215.446 242.178 213.257 241.95 211.107 242.239L189.242 235.117L186.101 245.397L207.99 251.327C209.515 252.864 211.387 254.015 213.451 254.685Z" fill="#FFB6B6"/>
<path d="M140.895 192.404C140.895 192.404 127.341 208.627 135.182 215.34C143.023 222.052 178.04 246.901 178.04 246.901L191.691 249.016L195.183 235.887L164.358 213.161L140.895 192.404Z" fill="#5C83D0"/>
<path d="M176.808 365.111L184.341 392.884L196.304 390.68L193.646 362.025L176.808 365.111Z" fill="#FFB6B6"/>
<path d="M186.113 391.121L181.682 392.003L178.137 403.906C178.137 403.906 183.897 406.11 183.897 410.519C183.897 414.927 186.113 418.013 194.975 417.572C203.837 417.131 204.723 417.572 204.723 414.045C204.723 410.519 198.077 392.003 198.077 392.003C198.077 392.003 198.52 384.508 193.203 384.949C187.885 385.39 186.113 391.121 186.113 391.121Z" fill="#2F2E41"/>
<path d="M136.302 364.679L136.816 393.441L148.959 394.199L153.388 365.762L136.302 364.679Z" fill="#FFB6B6"/>
<path d="M138.966 392.16L134.453 391.943L128.104 402.63C128.104 402.63 133.152 406.162 132.073 410.438C130.995 414.714 132.39 418.244 141.093 419.961C149.796 421.679 150.548 422.321 151.411 418.901C152.273 415.48 150.355 395.911 150.355 395.911C150.355 395.911 152.617 388.749 147.352 387.89C142.087 387.03 138.966 392.16 138.966 392.16Z" fill="#2F2E41"/>
<path d="M141.36 192.738L117.433 190.975L112.116 197.587C112.116 197.587 109.457 242.113 111.23 246.522C113.002 250.93 111.673 276.059 111.673 276.059L171.991 271.871L158.641 239.909L159.084 221.393L147.12 198.91L141.36 192.738Z" fill="#5C83D0"/>
<path d="M114.331 266.801C114.331 266.801 104.583 280.908 108.128 288.403C111.673 295.897 135.717 339.413 135.717 339.413L132.616 379.971L153.884 378.208L157.429 334.563L142.689 298.983L145.348 295.016L167.503 321.907L175.479 368.638L196.747 365.993L185.227 297.661L171.763 271.324L114.331 266.801Z" fill="#2F2E41"/>
<path d="M112.249 165.74C116.786 165.74 120.464 162.081 120.464 157.567C120.464 153.053 116.786 149.394 112.249 149.394C107.712 149.394 104.034 153.053 104.034 157.567C104.034 162.081 107.712 165.74 112.249 165.74Z" fill="#2F2E41"/>
<path d="M131.22 187.867C141.1 187.867 149.11 179.898 149.11 170.068C149.11 160.238 141.1 152.269 131.22 152.269C121.339 152.269 113.33 160.238 113.33 170.068C113.33 179.898 121.339 187.867 131.22 187.867Z" fill="#FFB6B6"/>
<path d="M125.547 189.582C123.646 190.584 118.296 186.905 116.381 181.975C115.15 178.803 112.156 179.331 110.245 175.375C109.132 173.071 112.456 170.816 111.908 168.824C110.915 165.213 112.16 161.983 112.319 161.587C113.689 158.171 115.708 158.251 117.336 154.275C118.317 151.881 117.688 151.6 118.512 150.376C120.89 146.842 127.79 146.707 132.657 148.378C134.341 148.957 138.398 145.858 141.691 148.103C145.57 150.748 148.151 158.373 147.558 159.77C147.197 160.619 145.188 159.754 141.011 160.407C137.143 161.012 142.248 163.887 137.895 164.867C132.748 166.026 131.198 164.968 129.771 166.588C128.263 168.301 127.985 171.767 129.36 173.825C130.043 174.846 130.923 175.206 130.813 175.917C130.612 177.214 129.454 176.509 129.074 177.885C128.632 179.486 132.298 181.585 131.979 182.069C131.915 182.167 131.641 182.272 128.061 180.9C126.631 180.352 126.08 179.878 125.92 180.053C125.66 180.337 124.375 183.179 125.835 184.388C128.108 186.27 126.533 187.017 127.569 188.49C128.638 190.01 126.756 188.945 125.547 189.582Z" fill="#2F2E41"/>
<path d="M129.736 292.423C132.591 297.018 137.289 299.277 140.228 297.469C143.166 295.661 143.234 290.471 140.377 285.874C139.261 284.023 137.716 282.464 135.87 281.329L123.526 262.012L114.539 267.968L127.662 286.379C127.858 288.53 128.57 290.602 129.736 292.423Z" fill="#FFB6B6"/>
<path d="M113.445 198.469C113.445 198.469 92.6196 202.437 94.3919 212.576C96.1643 222.716 107.352 264.036 107.352 264.036L116.547 274.295L127.624 266.36L118.319 229.329L113.445 198.469Z" fill="#5C83D0"/>
<path d="M605.34 206.937C604.521 205.563 600.978 207.034 600.326 205.787C599.677 204.544 602.969 202.651 604.85 198.327C605.189 197.547 607.326 192.633 605.744 191.116C602.745 188.242 589.022 200.104 584.219 196.222C583.165 195.37 582.429 193.67 579.239 190.908C577.97 189.81 577.203 189.314 576.46 189.499C575.406 189.76 575.323 191.164 574.193 193.923C572.498 198.06 571.496 197.81 570.509 201.111C569.776 203.562 569.943 204.987 569.081 205.264C567.86 205.657 566.737 203.058 565.19 203.29C563.612 203.528 562.657 206.554 562.356 208.82C561.79 213.072 563.36 215.878 564.23 218.829C565.175 222.035 565.736 226.911 563.553 233.814L541.944 294.388C546.715 281.958 560.528 247.885 566.332 235.224C568.008 231.569 569.858 227.861 573.656 226.398C577.314 224.989 582.337 225.83 588.74 224.295C589.488 224.116 591.563 223.591 591.824 222.376C592.04 221.372 590.82 220.812 591.007 219.872C591.259 218.61 593.659 218.595 596.609 217.139C598.689 216.113 599.985 214.893 601.1 213.843C601.436 213.527 606.43 208.766 605.34 206.937Z" fill="#39465E"/>
<path d="M520.325 238.825C519.411 238.829 519.114 240.983 518.311 240.941C517.511 240.9 517.527 238.746 515.936 236.58C515.649 236.19 513.842 233.728 512.637 234.063C510.354 234.698 512.246 244.822 508.945 246.047C508.221 246.316 507.17 246.185 504.887 246.946C503.979 247.249 503.513 247.48 503.39 247.896C503.215 248.486 503.883 248.932 504.918 250.28C506.47 252.301 506.058 252.718 507.401 254.153C508.399 255.218 509.15 255.547 509.038 256.048C508.879 256.758 507.273 256.556 506.942 257.379C506.603 258.218 507.821 259.557 508.852 260.358C510.786 261.861 512.623 261.905 514.33 262.331C516.184 262.794 518.752 263.927 521.527 266.985L545.173 295.015C540.418 289.099 527.595 272.523 523.024 266.035C521.704 264.162 520.409 262.189 520.784 259.912C521.144 257.719 523.008 255.509 524.098 251.939C524.226 251.523 524.565 250.358 524.042 249.88C523.609 249.484 522.98 249.919 522.57 249.556C522.021 249.069 522.706 247.892 522.839 246.032C522.933 244.72 522.705 243.735 522.509 242.888C522.449 242.633 521.542 238.82 520.325 238.825Z" fill="#39465E"/>
<path d="M538.56 242.898L538.009 238.007L538.261 237.636C539.425 235.921 540.019 234.247 540.026 232.657C540.027 232.405 540.015 232.152 540.003 231.894C539.956 230.874 539.897 229.606 540.561 228.127C540.934 227.303 541.981 225.395 543.555 225.631C543.978 225.69 544.299 225.884 544.542 226.11C544.578 226.054 544.614 225.997 544.654 225.936C545.144 225.192 545.532 224.873 545.906 224.566C546.193 224.33 546.49 224.087 546.955 223.51C547.159 223.258 547.318 223.036 547.452 222.849C547.859 222.285 548.391 221.611 549.329 221.623C550.33 221.67 550.855 222.495 551.203 223.04C551.824 224.013 552.105 224.715 552.291 225.18C552.359 225.35 552.436 225.541 552.475 225.6C552.798 226.073 555.422 225.631 556.411 225.47C558.632 225.102 560.553 224.783 561.345 226.177C561.912 227.173 561.491 228.491 560.055 230.199C559.607 230.73 559.131 231.134 558.709 231.45C559.059 231.658 559.372 231.977 559.499 232.478C559.798 233.663 558.774 234.851 556.456 236.013C555.88 236.304 555.105 236.691 554.019 236.878C553.508 236.965 553.047 236.986 552.653 236.998C552.645 237.225 552.591 237.47 552.453 237.723C552.046 238.467 551.198 238.821 549.921 238.736C548.516 238.663 547.359 238.396 546.338 238.162C545.446 237.959 544.678 237.787 544.076 237.827C542.958 237.917 542.096 238.807 541.085 239.962L538.56 242.898Z" fill="#39465E"/>
<path d="M541.115 213.776L536.499 215.546L536.075 215.398C534.113 214.713 532.334 214.566 530.787 214.963C530.541 215.026 530.298 215.101 530.051 215.178C529.071 215.482 527.853 215.861 526.247 215.596C525.351 215.447 523.231 214.923 523.061 213.349C523.011 212.926 523.118 212.569 523.277 212.277C523.212 212.257 523.148 212.236 523.078 212.214C522.231 211.931 521.822 211.638 521.429 211.356C521.127 211.14 520.815 210.916 520.137 210.614C519.839 210.482 519.583 210.385 519.367 210.303C518.715 210.055 517.926 209.714 517.7 208.808C517.492 207.832 518.16 207.118 518.602 206.645C519.391 205.801 520.001 205.353 520.406 205.055C520.554 204.947 520.721 204.824 520.768 204.772C521.146 204.341 520.051 201.928 519.644 201.017C518.722 198.973 517.925 197.205 519.079 196.089C519.904 195.291 521.292 195.362 523.316 196.311C523.947 196.607 524.46 196.962 524.875 197.289C524.988 196.899 525.219 196.517 525.673 196.267C526.75 195.679 528.165 196.363 529.882 198.299C530.311 198.78 530.884 199.427 531.341 200.425C531.556 200.895 531.693 201.333 531.804 201.709C532.027 201.66 532.279 201.649 532.56 201.718C533.387 201.921 533.946 202.647 534.187 203.898C534.473 205.269 534.507 206.45 534.538 207.492C534.567 208.401 534.594 209.184 534.786 209.754C535.157 210.807 536.241 211.411 537.62 212.091L541.115 213.776Z" fill="#39465E"/>
<path d="M538.56 199.366L538.009 194.475L538.261 194.105C539.425 192.39 540.019 190.715 540.026 189.126C540.027 188.873 540.015 188.621 540.003 188.363C539.956 187.343 539.897 186.075 540.561 184.596C540.934 183.772 541.981 181.864 543.555 182.1C543.978 182.159 544.299 182.353 544.542 182.579C544.578 182.523 544.614 182.466 544.654 182.404C545.144 181.661 545.532 181.342 545.906 181.035C546.193 180.798 546.49 180.555 546.955 179.979C547.159 179.726 547.318 179.504 547.452 179.318C547.859 178.753 548.391 178.08 549.329 178.092C550.33 178.139 550.855 178.963 551.203 179.509C551.824 180.482 552.105 181.183 552.291 181.649C552.359 181.819 552.436 182.01 552.475 182.069C552.798 182.541 555.422 182.1 556.411 181.939C558.632 181.571 560.553 181.252 561.345 182.645C561.912 183.642 561.491 184.96 560.055 186.667C559.607 187.199 559.131 187.603 558.709 187.919C559.059 188.127 559.372 188.446 559.499 188.946C559.798 190.132 558.774 191.32 556.456 192.482C555.88 192.772 555.105 193.16 554.019 193.346C553.508 193.434 553.047 193.455 552.653 193.467C552.645 193.694 552.591 193.939 552.453 194.192C552.046 194.936 551.198 195.29 549.921 195.205C548.516 195.132 547.359 194.865 546.338 194.631C545.446 194.428 544.678 194.256 544.076 194.296C542.958 194.386 542.096 195.276 541.085 196.431L538.56 199.366Z" fill="#39465E"/>
<path d="M543.59 294.308L542.56 293.666L541.359 293.802C541.34 293.691 541.275 293.436 541.176 293.037C540.638 290.85 538.999 284.195 537.632 273.714C536.678 266.397 536.138 258.875 536.026 251.353C535.915 243.819 536.273 238.115 536.56 233.531C536.777 230.074 537.041 226.781 537.3 223.574C537.988 215.006 538.637 206.912 538.154 197.952C538.047 195.951 537.823 191.787 535.378 187.357C533.96 184.787 532.006 182.506 529.571 180.579L531.085 178.685C533.773 180.815 535.935 183.342 537.51 186.195C540.221 191.107 540.465 195.644 540.583 197.824C541.074 206.943 540.418 215.114 539.722 223.765C539.466 226.961 539.202 230.239 538.986 233.682C538.701 238.224 538.346 243.878 538.457 251.315C538.566 258.747 539.1 266.177 540.041 273.402C541.392 283.751 543.007 290.307 543.538 292.461C543.82 293.611 543.88 293.852 543.59 294.308Z" fill="#39465E"/>
<path d="M525.113 184.421C525.013 184.421 524.912 184.419 524.81 184.412C522.74 184.301 520.823 183.068 519.112 180.749C518.31 179.658 517.899 178.413 517.08 175.931C516.953 175.548 516.336 173.607 515.961 170.936C515.715 169.191 515.746 168.461 516.094 167.816C516.479 167.098 517.104 166.597 517.806 166.26C517.776 166.028 517.8 165.79 517.901 165.546C518.316 164.538 519.417 164.67 520.013 164.734C520.314 164.772 520.69 164.821 521.096 164.8C521.735 164.769 522.078 164.58 522.598 164.297C523.095 164.025 523.713 163.688 524.631 163.501C526.44 163.126 527.955 163.636 528.455 163.803C531.084 164.675 532.38 166.708 533.88 169.063C534.179 169.535 535.206 171.255 535.884 173.612C536.373 175.312 536.304 176.068 536.157 176.63C535.858 177.785 535.151 178.446 533.358 179.906C531.485 181.434 530.545 182.199 529.738 182.664C527.859 183.743 526.679 184.421 525.113 184.421Z" fill="#39465E"/>
<path d="M417.878 251.594H227.152C219.474 251.594 213.228 245.379 213.228 237.74V94.2507C213.228 86.6122 219.474 80.397 227.152 80.397H417.878C425.556 80.397 431.802 86.6122 431.802 94.2507V237.74C431.802 245.379 425.556 251.594 417.878 251.594Z" fill="white"/>
<path d="M417.878 251.594H227.152C219.474 251.594 213.228 245.379 213.228 237.74V94.2507C213.228 86.6122 219.474 80.397 227.152 80.397H417.878C425.556 80.397 431.802 86.6122 431.802 94.2507V237.74C431.802 245.379 425.556 251.594 417.878 251.594ZM227.152 82.7104C220.757 82.7104 215.553 87.8875 215.553 94.2507V237.74C215.553 244.103 220.757 249.28 227.152 249.28H417.878C424.273 249.28 429.477 244.103 429.477 237.74V94.2507C429.477 87.8875 424.273 82.7104 417.878 82.7104H227.152Z" fill="#3F3D56"/>
<path d="M396.923 97.748C398.85 97.748 400.411 96.1944 400.411 94.2778C400.411 92.3613 398.85 90.8076 396.923 90.8076C394.997 90.8076 393.435 92.3613 393.435 94.2778C393.435 96.1944 394.997 97.748 396.923 97.748Z" fill="#5C83D0"/>
<path d="M406.224 97.748C408.151 97.748 409.712 96.1944 409.712 94.2778C409.712 92.3613 408.151 90.8076 406.224 90.8076C404.298 90.8076 402.736 92.3613 402.736 94.2778C402.736 96.1944 404.298 97.748 406.224 97.748Z" fill="#5C83D0"/>
<path d="M415.525 97.748C417.452 97.748 419.013 96.1944 419.013 94.2778C419.013 92.3613 417.452 90.8076 415.525 90.8076C413.599 90.8076 412.037 92.3613 412.037 94.2778C412.037 96.1944 413.599 97.748 415.525 97.748Z" fill="#5C83D0"/>
<path d="M232.993 150.379C232.031 150.379 231.249 151.158 231.249 152.114C231.249 152.581 231.43 153.013 231.758 153.331C232.09 153.669 232.524 153.85 232.993 153.85H413.2C414.162 153.85 414.944 153.071 414.944 152.114C414.944 151.648 414.763 151.216 414.434 150.898C414.103 150.56 413.668 150.379 413.2 150.379H232.993Z" fill="#C6CDDB"/>
<path d="M380.646 149.801V154.428H232.993C232.353 154.428 231.772 154.173 231.353 153.745C230.923 153.329 230.667 152.751 230.667 152.114C230.667 150.842 231.714 149.801 232.993 149.801H380.646Z" fill="#769BFB"/>
<path d="M410.293 141.126H387.041C384.477 141.126 382.39 139.051 382.39 136.499C382.39 133.947 384.477 131.872 387.041 131.872H410.293C412.858 131.872 414.944 133.947 414.944 136.499C414.944 139.051 412.858 141.126 410.293 141.126Z" fill="#C6CDDB"/>
<path d="M257.989 116.834H234.737C232.172 116.834 230.086 114.759 230.086 112.207C230.086 109.655 232.172 107.58 234.737 107.58H257.989C260.553 107.58 262.64 109.655 262.64 112.207C262.64 114.759 260.553 116.834 257.989 116.834Z" fill="#C6CDDB"/>
<path d="M232.993 202.433C232.031 202.433 231.249 203.211 231.249 204.168C231.249 204.634 231.43 205.066 231.758 205.384C232.09 205.722 232.524 205.903 232.993 205.903H413.2C414.162 205.903 414.944 205.125 414.944 204.168C414.944 203.701 414.763 203.27 414.434 202.951C414.103 202.613 413.668 202.433 413.2 202.433H232.993Z" fill="#C6CDDB"/>
<path d="M291.124 201.854V206.481H232.993C232.353 206.481 231.772 206.227 231.353 205.799C230.923 205.382 230.667 204.804 230.667 204.168C230.667 202.895 231.714 201.854 232.993 201.854H291.124Z" fill="#769BFB"/>
<path d="M410.293 193.179H387.041C384.477 193.179 382.39 191.104 382.39 188.552C382.39 186 384.477 183.925 387.041 183.925H410.293C412.858 183.925 414.944 186 414.944 188.552C414.944 191.104 412.858 193.179 410.293 193.179Z" fill="#C6CDDB"/>
</g>
<defs>
<clipPath id="clip0_218_388">
<rect width="727" height="444" fill="white" transform="translate(0.5 0.5)"/>
</clipPath>
</defs>
</svg>
